<?xml version="1.0" encoding="UTF-8" standalone="no"?>
<!DOCTYPE svg PUBLIC "-//W3C//DTD SVG 1.0//EN" "http://www.w3.org/TR/2001/PR-SVG-20010719/DTD/svg10.dtd">
<svg width="60cm" height="16cm" viewBox="17 -61 1199 301" xmlns="http://www.w3.org/2000/svg" xmlns:xlink="http://www.w3.org/1999/xlink">
  <g>
    <g>
      <rect style="fill: #90ee90" x="199.062" y="60" width="163.937" height="78"/>
      <rect style="fill: none; fill-opacity:0; stroke-width: 2; stroke: #000000" x="199.062" y="60" width="163.937" height="78"/>
      <line style="fill: none; fill-opacity:0; stroke-width: 2; stroke: #000000" x1="215.456" y1="60" x2="215.456" y2="138"/>
      <line style="fill: none; fill-opacity:0; stroke-width: 2; stroke: #000000" x1="346.606" y1="60" x2="346.606" y2="138"/>
      <text style="fill: #000000;text-anchor:middle;font-size:12.8;font-family:sanserif;font-style:normal;font-weight:normal" x="281.031" y="103">
        <tspan x="281.031" y="103">Crop/Normalize</tspan>
      </text>
    </g>
    <g>
      <rect style="fill: #90ee90" x="417.3" y="60.4" width="163.937" height="78"/>
      <rect style="fill: none; fill-opacity:0; stroke-width: 2; stroke: #000000" x="417.3" y="60.4" width="163.937" height="78"/>
      <line style="fill: none; fill-opacity:0; stroke-width: 2; stroke: #000000" x1="433.694" y1="60.4" x2="433.694" y2="138.4"/>
      <line style="fill: none; fill-opacity:0; stroke-width: 2; stroke: #000000" x1="564.844" y1="60.4" x2="564.844" y2="138.4"/>
      <text style="fill: #000000;text-anchor:middle;font-size:12.8;font-family:sanserif;font-style:normal;font-weight:normal" x="499.269" y="103.4">
        <tspan x="499.269" y="103.4">Image -&gt; Vector</tspan>
      </text>
    </g>
    <g>
      <rect style="fill: #90ee90" x="636.344" y="59" width="205.312" height="77"/>
      <rect style="fill: none; fill-opacity:0; stroke-width: 2; stroke: #000000" x="636.344" y="59" width="205.312" height="77"/>
      <line style="fill: none; fill-opacity:0; stroke-width: 2; stroke: #000000" x1="656.875" y1="59" x2="656.875" y2="136"/>
      <line style="fill: none; fill-opacity:0; stroke-width: 2; stroke: #000000" x1="821.125" y1="59" x2="821.125" y2="136"/>
      <text style="fill: #000000;text-anchor:middle;font-size:12.8;font-family:sanserif;font-style:normal;font-weight:normal" x="739" y="101.5">
        <tspan x="739" y="101.5">Project into subspace</tspan>
      </text>
    </g>
    <g>
      <path style="fill: #add8e6" d="M 661 -56 L 815,-56 L 815,10.8571 C 784.2,-0.285714 768.8,-0.285714 738,10.8571 C 707.2,22 691.8,22 661,10.8571 L 661,-56z"/>
      <path style="fill: none; fill-opacity:0; stroke-width: 2; stroke: #000000" d="M 661 -56 L 815,-56 L 815,10.8571 C 784.2,-0.285714 768.8,-0.285714 738,10.8571 C 707.2,22 691.8,22 661,10.8571 L 661,-56"/>
      <text style="fill: #000000;text-anchor:middle;font-size:12.8;font-family:sanserif;font-style:normal;font-weight:normal" x="738" y="-24.1429">
        <tspan x="738" y="-24.1429">Subspace P</tspan>
      </text>
    </g>
    <g>
      <line style="fill: none; fill-opacity:0; stroke-width: 2; stroke: #000000" x1="146.104" y1="96.6273" x2="188.339" y2="97.37"/>
      <polygon style="fill: #000000" points="195.837,97.5019 185.751,102.325 188.339,97.37 185.927,92.3268 "/>
      <polygon style="fill: none; fill-opacity:0; stroke-width: 2; stroke: #000000" points="195.837,97.5019 185.751,102.325 188.339,97.37 185.927,92.3268 "/>
    </g>
    <g>
      <line style="fill: none; fill-opacity:0; stroke-width: 2; stroke: #000000" x1="280" y1="16" x2="280.414" y2="49.2845"/>
      <polygon style="fill: #000000" points="280.507,56.7839 275.383,46.8468 280.414,49.2845 285.382,46.7225 "/>
      <polygon style="fill: none; fill-opacity:0; stroke-width: 2; stroke: #000000" points="280.507,56.7839 275.383,46.8468 280.414,49.2845 285.382,46.7225 "/>
    </g>
    <g>
      <line style="fill: none; fill-opacity:0; stroke-width: 2; stroke: #000000" x1="363" y1="99" x2="407.564" y2="99.3283"/>
      <polygon style="fill: #000000" points="415.064,99.3835 405.027,104.31 407.564,99.3283 405.101,94.31 "/>
      <polygon style="fill: none; fill-opacity:0; stroke-width: 2; stroke: #000000" points="415.064,99.3835 405.027,104.31 407.564,99.3283 405.101,94.31 "/>
    </g>
    <g>
      <line style="fill: none; fill-opacity:0; stroke-width: 2; stroke: #000000" x1="581.238" y1="99.4" x2="626.614" y2="97.8355"/>
      <polygon style="fill: #000000" points="634.109,97.5771 624.287,102.919 626.614,97.8355 623.943,92.9246 "/>
      <polygon style="fill: none; fill-opacity:0; stroke-width: 2; stroke: #000000" points="634.109,97.5771 624.287,102.919 626.614,97.8355 623.943,92.9246 "/>
    </g>
    <g>
      <path style="fill: #ffffff" d="M 18.9 65.8333 C 44.14,54.7083 56.76,51 82,51 C 107.24,51 119.86,54.7083 145.1,65.8333 L 145.1,125.167 C 119.86,136.292 107.24,140 82,140 C 56.76,140 44.14,136.292 18.9,125.167 L 18.9,65.8333z"/>
      <path style="fill: none; fill-opacity:0; stroke-width: 2; stroke: #000000" d="M 18.9 65.8333 C 44.14,54.7083 56.76,51 82,51 C 107.24,51 119.86,54.7083 145.1,65.8333 L 145.1,125.167 C 119.86,136.292 107.24,140 82,140 C 56.76,140 44.14,136.292 18.9,125.167 L 18.9,65.8333"/>
      <path style="fill: none; fill-opacity:0; stroke-width: 2; stroke: #000000" d="M 18.9 65.8333 C 44.14,76.9583 56.76,80.6667 82,80.6667 C 107.24,80.6667 119.86,76.9583 145.1,65.8333"/>
      <text style="fill: #000000;text-anchor:middle;font-size:12.8;font-family:sanserif;font-style:normal;font-weight:normal" x="82" y="106.917">
        <tspan x="82" y="106.917">Test images</tspan>
      </text>
    </g>
    <g>
      <path style="fill: #bfbfbf" d="M 226 -46.5 C 247.6,-55.875 258.4,-59 280,-59 C 301.6,-59 312.4,-55.875 334,-46.5 L 334,3.5 C 312.4,12.875 301.6,16 280,16 C 258.4,16 247.6,12.875 226,3.5 L 226,-46.5z"/>
      <path style="fill: none; fill-opacity:0; stroke-width: 2; stroke: #000000" d="M 226 -46.5 C 247.6,-55.875 258.4,-59 280,-59 C 301.6,-59 312.4,-55.875 334,-46.5 L 334,3.5 C 312.4,12.875 301.6,16 280,16 C 258.4,16 247.6,12.875 226,3.5 L 226,-46.5"/>
      <path style="fill: none; fill-opacity:0; stroke-width: 2; stroke: #000000" d="M 226 -46.5 C 247.6,-37.125 258.4,-34 280,-34 C 301.6,-34 312.4,-37.125 334,-46.5"/>
      <text style="fill: #000000;text-anchor:middle;font-size:12.8;font-family:sanserif;font-style:normal;font-weight:normal" x="280" y="-11.25">
        <tspan x="280" y="-11.25">Crop info.</tspan>
      </text>
    </g>
    <g>
      <line style="fill: none; fill-opacity:0; stroke-width: 2; stroke: #000000" x1="738.377" y1="11.6484" x2="738.872" y2="49.2648"/>
      <polygon style="fill: #000000" points="738.971,56.7641 733.839,46.8308 738.872,49.2648 743.839,46.6992 "/>
      <polygon style="fill: none; fill-opacity:0; stroke-width: 2; stroke: #000000" points="738.971,56.7641 733.839,46.8308 738.872,49.2648 743.839,46.6992 "/>
    </g>
    <g>
      <path style="fill: #ff0000" d="M 909.3 -59.6 L 1063.3,-59.6 L 1063.3,7.25714 C 1032.5,-3.88571 1017.1,-3.88571 986.3,7.25714 C 955.5,18.4 940.1,18.4 909.3,7.25714 L 909.3,-59.6z"/>
      <path style="fill: none; fill-opacity:0; stroke-width: 2; stroke: #000000" d="M 909.3 -59.6 L 1063.3,-59.6 L 1063.3,7.25714 C 1032.5,-3.88571 1017.1,-3.88571 986.3,7.25714 C 955.5,18.4 940.1,18.4 909.3,7.25714 L 909.3,-59.6"/>
      <text style="fill: #000000;text-anchor:middle;font-size:12.8;font-family:sanserif;font-style:normal;font-weight:normal" x="986.3" y="-27.7429">
        <tspan x="986.3" y="-27.7429">User model</tspan>
      </text>
    </g>
    <g>
      <polygon style="fill: #90ee90" points="985.694,44.3748 1062.6,92.3513 985.694,140.328 908.786,92.3513 "/>
      <polygon style="fill: none; fill-opacity:0; stroke-width: 2; stroke: #000000" points="985.694,44.3748 1062.6,92.3513 985.694,140.328 908.786,92.3513 "/>
      <text style="fill: #000000;text-anchor:middle;font-size:12.8;font-family:sanserif;font-style:normal;font-weight:normal" x="985.694" y="88.2513">
        <tspan x="985.694" y="88.2513">Similarity</tspan>
        <tspan x="985.694" y="104.251">measure</tspan>
      </text>
    </g>
    <g>
      <line style="fill: none; fill-opacity:0; stroke-width: 2; stroke: #000000" x1="842.66" y1="95.3365" x2="899.997" y2="94.1398"/>
      <polygon style="fill: #000000" points="907.496,93.9833 897.602,99.1909 899.997,94.1398 897.394,89.1931 "/>
      <polygon style="fill: none; fill-opacity:0; stroke-width: 2; stroke: #000000" points="907.496,93.9833 897.602,99.1909 899.997,94.1398 897.394,89.1931 "/>
    </g>
    <g>
      <line style="fill: none; fill-opacity:0; stroke-width: 2; stroke: #000000" x1="986.145" y1="8.36858" x2="986.008" y2="33.7989"/>
      <polygon style="fill: #000000" points="985.968,41.2988 981.021,31.2721 986.008,33.7989 991.021,31.3258 "/>
      <polygon style="fill: none; fill-opacity:0; stroke-width: 2; stroke: #000000" points="985.968,41.2988 981.021,31.2721 986.008,33.7989 991.021,31.3258 "/>
    </g>
    <g>
      <line style="fill: none; fill-opacity:0; stroke-width: 2; stroke: #000000" x1="1063.6" y1="92.1548" x2="1115.26" y2="92.0245"/>
      <polygon style="fill: #000000" points="1122.76,92.0056 1112.78,97.0308 1115.26,92.0245 1112.75,87.0309 "/>
      <polygon style="fill: none; fill-opacity:0; stroke-width: 2; stroke: #000000" points="1122.76,92.0056 1112.78,97.0308 1115.26,92.0245 1112.75,87.0309 "/>
    </g>
    <text style="fill: #000000;text-anchor:start;font-size:24.0905;font-family:sanserif;font-style:normal;font-weight:normal" x="1134" y="99">
      <tspan x="1134" y="99">Accept</tspan>
    </text>
    <text style="fill: #000000;text-anchor:start;font-size:24.0905;font-family:sanserif;font-style:normal;font-weight:normal" x="948.3" y="233.8">
      <tspan x="948.3" y="233.8">Deny</tspan>
    </text>
    <g>
      <line style="fill: none; fill-opacity:0; stroke-width: 2; stroke: #000000" x1="985.694" y1="140.328" x2="985.958" y2="201.264"/>
      <polygon style="fill: #000000" points="985.99,208.764 980.947,198.786 985.958,201.264 990.947,198.742 "/>
      <polygon style="fill: none; fill-opacity:0; stroke-width: 2; stroke: #000000" points="985.99,208.764 980.947,198.786 985.958,201.264 990.947,198.742 "/>
    </g>
  </g>
</svg>
