<?xml version="1.0" encoding="UTF-8" standalone="no"?>
<!-- Created with Inkscape (http://www.inkscape.org/) -->

<svg
   xmlns:dc="http://purl.org/dc/elements/1.1/"
   xmlns:cc="http://creativecommons.org/ns#"
   xmlns:rdf="http://www.w3.org/1999/02/22-rdf-syntax-ns#"
   xmlns:svg="http://www.w3.org/2000/svg"
   xmlns="http://www.w3.org/2000/svg"
   xmlns:xlink="http://www.w3.org/1999/xlink"
   xmlns:sodipodi="http://sodipodi.sourceforge.net/DTD/sodipodi-0.dtd"
   xmlns:inkscape="http://www.inkscape.org/namespaces/inkscape"
   id="svg2"
   version="1.1"
   inkscape:version="0.48.2 r9819"
   width="420"
   height="420"
   xml:space="preserve"
   sodipodi:docname="bob-square.svg"
   inkscape:export-filename="/Users/andre/Desktop/Bob/bob-16x16.png"
   inkscape:export-xdpi="3.4300001"
   inkscape:export-ydpi="3.4300001"><title
     id="title3191">Bob Squared Logo</title><metadata
     id="metadata8"><rdf:RDF><cc:Work
         rdf:about=""><dc:format>image/svg+xml</dc:format><dc:type
           rdf:resource="http://purl.org/dc/dcmitype/StillImage" /><dc:title>Bob Squared Logo</dc:title><dc:date>31.01.2012</dc:date><dc:creator><cc:Agent><dc:title>Andre Anjos</dc:title></cc:Agent></dc:creator><dc:contributor><cc:Agent><dc:title>Vincent Spano, Tiffany Wallace, Roy Wallace, Christopher McCool, Laurent El-Shafey, Ivana Chingovska, Sebastien Marcel, Manuel Guenther</dc:title></cc:Agent></dc:contributor><cc:license
           rdf:resource="http://creativecommons.org/licenses/by/3.0/" /><dc:rights><cc:Agent><dc:title>Idiap Research Institute, Switzerland</dc:title></cc:Agent></dc:rights><dc:description>Logo for Bob, to be used on places a square is required (e.g. as a favicon).</dc:description></cc:Work><cc:License
         rdf:about="http://creativecommons.org/licenses/by/3.0/"><cc:permits
           rdf:resource="http://creativecommons.org/ns#Reproduction" /><cc:permits
           rdf:resource="http://creativecommons.org/ns#Distribution" /><cc:requires
           rdf:resource="http://creativecommons.org/ns#Notice" /><cc:requires
           rdf:resource="http://creativecommons.org/ns#Attribution" /><cc:permits
           rdf:resource="http://creativecommons.org/ns#DerivativeWorks" /></cc:License></rdf:RDF></metadata><defs
     id="defs6"><linearGradient
       id="linearGradient4056"><stop
         style="stop-color:#242424;stop-opacity:1;"
         offset="0"
         id="stop4058" /><stop
         id="stop4060"
         offset="0.50971884"
         style="stop-color:#203356;stop-opacity:1;" /><stop
         id="stop4063"
         offset="0.53708309"
         style="stop-color:#1c4288;stop-opacity:1;" /><stop
         id="stop4065"
         offset="1"
         style="stop-color:#42ecf4;stop-opacity:1;" /></linearGradient><linearGradient
       id="linearGradient4019"><stop
         style="stop-color:#242424;stop-opacity:1;"
         offset="0"
         id="stop4021" /><stop
         id="stop4023"
         offset="0.66225797"
         style="stop-color:#1c4288;stop-opacity:1;" /><stop
         id="stop4025"
         offset="1"
         style="stop-color:#42ecf4;stop-opacity:1;" /></linearGradient><linearGradient
       id="linearGradient3993"><stop
         style="stop-color:#1c4288;stop-opacity:1;"
         offset="0"
         id="stop3997" /><stop
         id="stop3999"
         offset="1"
         style="stop-color:#42ecf4;stop-opacity:1;" /></linearGradient><linearGradient
       id="linearGradient3207"><stop
         id="stop3215"
         offset="0"
         style="stop-color:#000000;stop-opacity:1;" /><stop
         style="stop-color:#131a28;stop-opacity:1;"
         offset="0.41708362"
         id="stop4083" /><stop
         style="stop-color:#1a2945;stop-opacity:1;"
         offset="0.56234229"
         id="stop4035" /><stop
         style="stop-color:#1c4288;stop-opacity:1;"
         offset="0.5765506"
         id="stop4017" /><stop
         style="stop-color:#0bb5bd;stop-opacity:1;"
         offset="1"
         id="stop3211" /></linearGradient><linearGradient
       id="linearGradient3181"><stop
         style="stop-color:#242424;stop-opacity:1;"
         offset="0"
         id="stop3183" /><stop
         id="stop3197"
         offset="1"
         style="stop-color:#1c4288;stop-opacity:0.94117647;" /></linearGradient><linearGradient
       id="linearGradient3169"><stop
         style="stop-color:#1c4288;stop-opacity:1;"
         offset="0"
         id="stop3173" /><stop
         id="stop3175"
         offset="1"
         style="stop-color:#42ecf4;stop-opacity:1;" /></linearGradient><linearGradient
       id="linearGradient6075"><stop
         style="stop-color:#282828;stop-opacity:1;"
         offset="0"
         id="stop6077" /><stop
         style="stop-color:#282828;stop-opacity:0;"
         offset="1"
         id="stop6079" /></linearGradient><linearGradient
       id="linearGradient6055"><stop
         id="stop6063"
         offset="0"
         style="stop-color:#1c4288;stop-opacity:1;" /><stop
         style="stop-color:#42ecf4;stop-opacity:1;"
         offset="1"
         id="stop6059" /></linearGradient><linearGradient
       id="linearGradient6047"><stop
         style="stop-color:#ffffff;stop-opacity:1;"
         offset="0"
         id="stop6049" /><stop
         style="stop-color:#282828;stop-opacity:0;"
         offset="1"
         id="stop6051" /></linearGradient><linearGradient
       inkscape:collect="always"
       id="linearGradient4060"><stop
         style="stop-color:#000000;stop-opacity:1;"
         offset="0"
         id="stop4062" /><stop
         style="stop-color:#000000;stop-opacity:0;"
         offset="1"
         id="stop4064" /></linearGradient><linearGradient
       inkscape:collect="always"
       id="linearGradient3986"><stop
         style="stop-color:#ffffff;stop-opacity:0.94117647"
         offset="0"
         id="stop3988" /><stop
         style="stop-color:#000000;stop-opacity:0"
         offset="1"
         id="stop3990" /></linearGradient><linearGradient
       inkscape:collect="always"
       id="linearGradient3928"><stop
         style="stop-color:#000000;stop-opacity:1;"
         offset="0"
         id="stop3930" /><stop
         style="stop-color:#000000;stop-opacity:0;"
         offset="1"
         id="stop3932" /></linearGradient><linearGradient
       id="linearGradient3917"><stop
         id="stop3925"
         offset="0"
         style="stop-color:#000000;stop-opacity:0.84920633;" /><stop
         style="stop-color:#000000;stop-opacity:0;"
         offset="1"
         id="stop3921" /></linearGradient><linearGradient
       id="linearGradient6720"><stop
         style="stop-color:#271e21;stop-opacity:1;"
         offset="0"
         id="stop6722" /><stop
         style="stop-color:#231f20;stop-opacity:0;"
         offset="0"
         id="stop6724" /></linearGradient><linearGradient
       id="linearGradient5246"><stop
         style="stop-color:#231f20;stop-opacity:1;"
         offset="0"
         id="stop5248" /><stop
         style="stop-color:#231f20;stop-opacity:0;"
         offset="1"
         id="stop5250" /></linearGradient><inkscape:perspective
       sodipodi:type="inkscape:persp3d"
       inkscape:vp_x="0 : 0.5 : 1"
       inkscape:vp_y="0 : 1000 : 0"
       inkscape:vp_z="1 : 0.5 : 1"
       inkscape:persp3d-origin="0.5 : 0.33333333 : 1"
       id="perspective10" /><clipPath
       clipPathUnits="userSpaceOnUse"
       id="clipPath18"><path
         d="m 213.811,372.605 c -5.323,-6.417 -50.507,-76.034 -89.799,-137.847 l 0,0 -83.296,0 -23.46,-38.642 82.334,0 C 80.599,165.863 66.416,142.664 64.635,138.309 l 0,0 C 58.595,123.59 55.589,109.793 55.589,96.913 l 0,0 c 0,-24.943 7.667,-44.568 23.001,-58.879 l 0,0 c 15.335,-14.32 36.237,-21.468 62.712,-21.468 l 0,0 c 35.975,0 68.387,13.544 97.213,40.634 l 0,0 c 29.739,27.999 44.613,60.92 44.613,98.742 l 0,0 c 0,27.09 -10.53,47.535 -31.588,61.337 l 0,0 c -16.643,10.847 -37.951,16.644 -63.894,17.395 l 0,0 c 40.487,62.291 87.076,132.133 93.633,137.931 l 0,0 -67.468,0 z M 168.595,196.116 c 16.562,0 29.534,-4.522 38.948,-13.57 l 0,0 c 9.404,-9.046 14.106,-21.696 14.106,-37.95 l 0,0 c 0,-20.445 -6.9,-41.805 -20.7,-64.088 l 0,0 C 185.404,55.666 168.033,43.246 148.816,43.246 l 0,0 c -11.56,0 -20.393,5.111 -26.528,15.334 l 0,0 c -5.119,8.586 -7.666,19.065 -7.666,31.434 l 0,0 c 0,15.026 3.833,30.714 11.5,47.068 l 0,0 c 2.349,4.952 17.079,28.543 36.626,59.034 l 0,0 5.847,0 z"
         id="path20"
         inkscape:connector-curvature="0" /></clipPath><linearGradient
       x1="0"
       y1="0"
       x2="1"
       y2="0"
       gradientUnits="userSpaceOnUse"
       gradientTransform="matrix(19.001633,362.57272,362.57272,-19.001633,141.91992,16.339844)"
       spreadMethod="pad"
       id="linearGradient26"><stop
         style="stop-opacity:1;stop-color:#ffffff"
         offset="0"
         id="stop28" /><stop
         style="stop-opacity:1;stop-color:#231f20"
         offset="0.47879"
         id="stop30" /><stop
         style="stop-opacity:1;stop-color:#231f20"
         offset="1"
         id="stop32" /></linearGradient><clipPath
       clipPathUnits="userSpaceOnUse"
       id="clipPath40"><path
         d="M 0,431 816,431 816,0 0,0 0,431 z"
         id="path42"
         inkscape:connector-curvature="0" /></clipPath><clipPath
       clipPathUnits="userSpaceOnUse"
       id="clipPath56"><path
         d="m 728.468,372.605 c -5.324,-6.417 -50.508,-76.034 -89.8,-137.847 l 0,0 -83.297,0 -23.46,-38.642 82.334,0 c -18.99,-30.253 -33.173,-53.452 -34.953,-57.807 l 0,0 c -6.041,-14.719 -9.047,-28.516 -9.047,-41.396 l 0,0 c 0,-24.943 7.666,-44.568 22.999,-58.879 l 0,0 c 15.334,-14.32 36.238,-21.468 62.714,-21.468 l 0,0 c 35.974,0 68.386,13.544 97.214,40.634 l 0,0 c 29.737,27.999 44.611,60.92 44.611,98.742 l 0,0 c 0,27.09 -10.528,47.535 -31.587,61.337 l 0,0 c -16.642,10.847 -37.951,16.644 -63.894,17.395 l 0,0 c 40.488,62.291 87.076,132.133 93.632,137.931 l 0,0 -67.466,0 z M 683.25,196.116 c 16.562,0 29.536,-4.522 38.95,-13.57 l 0,0 c 9.402,-9.046 14.104,-21.696 14.104,-37.95 l 0,0 c 0,-20.445 -6.9,-41.805 -20.7,-64.088 l 0,0 C 700.059,55.666 682.69,43.246 663.471,43.246 l 0,0 c -11.559,0 -20.393,5.111 -26.527,15.334 l 0,0 c -5.118,8.586 -7.667,19.065 -7.667,31.434 l 0,0 c 0,15.026 3.833,30.714 11.5,47.068 l 0,0 c 2.349,4.952 17.08,28.543 36.626,59.034 l 0,0 5.847,0 z"
         id="path58"
         inkscape:connector-curvature="0" /></clipPath><linearGradient
       x1="0"
       y1="0"
       x2="1"
       y2="0"
       gradientUnits="userSpaceOnUse"
       gradientTransform="matrix(19.001633,362.57272,362.57272,-19.001633,656.5752,16.339844)"
       spreadMethod="pad"
       id="linearGradient64"><stop
         style="stop-opacity:1;stop-color:#ffffff"
         offset="0"
         id="stop66" /><stop
         style="stop-opacity:1;stop-color:#231f20"
         offset="0.47879"
         id="stop68" /><stop
         style="stop-opacity:1;stop-color:#231f20"
         offset="1"
         id="stop70" /></linearGradient><clipPath
       clipPathUnits="userSpaceOnUse"
       id="clipPath78"><path
         d="M 0,431 816,431 816,0 0,0 0,431 z"
         id="path80"
         inkscape:connector-curvature="0" /></clipPath><clipPath
       clipPathUnits="userSpaceOnUse"
       id="clipPath90"><path
         d="m 298.044,234.758 -23.46,-38.642 82.534,0 c -15.429,-24.752 -33.774,-54.431 -35.154,-57.807 l 0,0 c -6.04,-14.719 -9.047,-28.516 -9.047,-41.396 l 0,0 c 0,-24.943 7.667,-44.568 23.001,-58.879 l 0,0 c 15.331,-14.32 36.236,-21.468 62.713,-21.468 l 0,0 c 35.974,0 68.386,13.544 97.212,40.634 l 0,0 c 29.738,27.999 44.611,60.92 44.611,98.742 l 0,0 c 0,27.09 -10.528,47.535 -31.585,61.337 l 0,0 c -17.882,11.653 -41.145,17.479 -69.76,17.479 l 0,0 -141.065,0 z m 144.103,-4.434 c 0,0 0,0 0,0 m -16.223,-34.208 c 16.559,0 29.533,-4.522 38.946,-13.57 l 0,0 c 9.406,-9.046 14.107,-21.696 14.107,-37.95 l 0,0 c 0,-20.445 -6.9,-41.805 -20.7,-64.088 l 0,0 C 442.731,55.666 425.362,43.246 406.144,43.246 l 0,0 c -11.56,0 -20.394,5.111 -26.527,15.334 l 0,0 c -5.12,8.586 -7.667,19.065 -7.667,31.434 l 0,0 c 0,15.026 3.833,30.714 11.5,47.068 l 0,0 c 1.822,3.846 20.915,34.034 36.838,59.034 l 0,0 5.636,0 z"
         id="path92"
         inkscape:connector-curvature="0" /></clipPath><linearGradient
       x1="0"
       y1="0"
       x2="1"
       y2="0"
       gradientUnits="userSpaceOnUse"
       gradientTransform="matrix(11.539063,220.1783,220.1783,-11.539063,399.24707,16.339844)"
       spreadMethod="pad"
       id="linearGradient98"><stop
         style="stop-opacity:1;stop-color:#ffffff"
         offset="0"
         id="stop100" /><stop
         style="stop-opacity:1;stop-color:#231f20"
         offset="0.800003"
         id="stop102" /><stop
         style="stop-opacity:1;stop-color:#231f20"
         offset="1"
         id="stop104" /></linearGradient><clipPath
       clipPathUnits="userSpaceOnUse"
       id="clipPath112"><path
         d="M 0,431 816,431 816,0 0,0 0,431 z"
         id="path114"
         inkscape:connector-curvature="0" /></clipPath><linearGradient
       inkscape:collect="always"
       xlink:href="#linearGradient98"
       id="linearGradient3000"
       gradientUnits="userSpaceOnUse"
       gradientTransform="matrix(11.539063,220.1783,220.1783,-11.539063,399.24707,16.339844)"
       spreadMethod="pad"
       x1="0"
       y1="0"
       x2="1"
       y2="0" /><linearGradient
       inkscape:collect="always"
       xlink:href="#linearGradient64"
       id="linearGradient3036"
       gradientUnits="userSpaceOnUse"
       gradientTransform="matrix(19.001633,362.57272,362.57272,-19.001633,656.5752,16.339844)"
       spreadMethod="pad"
       x1="0"
       y1="0"
       x2="1"
       y2="0" /><linearGradient
       inkscape:collect="always"
       xlink:href="#linearGradient26"
       id="linearGradient3064"
       gradientUnits="userSpaceOnUse"
       gradientTransform="matrix(19.001633,362.57272,362.57272,-19.001633,141.91992,16.339844)"
       spreadMethod="pad"
       x1="0"
       y1="0"
       x2="1"
       y2="0" /><linearGradient
       inkscape:collect="always"
       xlink:href="#linearGradient64"
       id="linearGradient3127"
       gradientUnits="userSpaceOnUse"
       gradientTransform="matrix(19.001633,362.57272,362.57272,-19.001633,656.5752,16.339844)"
       spreadMethod="pad"
       x1="0"
       y1="0"
       x2="1"
       y2="0" /><linearGradient
       inkscape:collect="always"
       xlink:href="#linearGradient64"
       id="linearGradient3133"
       gradientUnits="userSpaceOnUse"
       gradientTransform="matrix(19.001633,362.57272,362.57272,-19.001633,656.5752,16.339844)"
       spreadMethod="pad"
       x1="0"
       y1="0"
       x2="1"
       y2="0" /><linearGradient
       inkscape:collect="always"
       xlink:href="#linearGradient64"
       id="linearGradient3138"
       gradientUnits="userSpaceOnUse"
       gradientTransform="matrix(19.001633,362.57272,362.57272,-19.001633,656.5752,16.339844)"
       spreadMethod="pad"
       x1="0"
       y1="0"
       x2="1"
       y2="0" /><inkscape:perspective
       id="perspective3206"
       inkscape:persp3d-origin="0.5 : 0.33333333 : 1"
       inkscape:vp_z="1 : 0.5 : 1"
       inkscape:vp_y="0 : 1000 : 0"
       inkscape:vp_x="0 : 0.5 : 1"
       sodipodi:type="inkscape:persp3d" /><clipPath
       clipPathUnits="userSpaceOnUse"
       id="clipPath18-2"><path
         d="m 213.811,372.605 c -5.323,-6.417 -50.507,-76.034 -89.799,-137.847 l 0,0 -83.296,0 -23.46,-38.642 82.334,0 C 80.599,165.863 66.416,142.664 64.635,138.309 l 0,0 C 58.595,123.59 55.589,109.793 55.589,96.913 l 0,0 c 0,-24.943 7.667,-44.568 23.001,-58.879 l 0,0 c 15.335,-14.32 36.237,-21.468 62.712,-21.468 l 0,0 c 35.975,0 68.387,13.544 97.213,40.634 l 0,0 c 29.739,27.999 44.613,60.92 44.613,98.742 l 0,0 c 0,27.09 -10.53,47.535 -31.588,61.337 l 0,0 c -16.643,10.847 -37.951,16.644 -63.894,17.395 l 0,0 c 40.487,62.291 87.076,132.133 93.633,137.931 l 0,0 -67.468,0 z M 168.595,196.116 c 16.562,0 29.534,-4.522 38.948,-13.57 l 0,0 c 9.404,-9.046 14.106,-21.696 14.106,-37.95 l 0,0 c 0,-20.445 -6.9,-41.805 -20.7,-64.088 l 0,0 C 185.404,55.666 168.033,43.246 148.816,43.246 l 0,0 c -11.56,0 -20.393,5.111 -26.528,15.334 l 0,0 c -5.119,8.586 -7.666,19.065 -7.666,31.434 l 0,0 c 0,15.026 3.833,30.714 11.5,47.068 l 0,0 c 2.349,4.952 17.079,28.543 36.626,59.034 l 0,0 5.847,0 z"
         id="path20-5"
         inkscape:connector-curvature="0" /></clipPath><linearGradient
       inkscape:collect="always"
       xlink:href="#linearGradient26-7"
       id="linearGradient3064-4"
       gradientUnits="userSpaceOnUse"
       gradientTransform="matrix(19.001633,362.57272,362.57272,-19.001633,141.91992,16.339844)"
       spreadMethod="pad"
       x1="0"
       y1="0"
       x2="1"
       y2="0" /><linearGradient
       x1="0"
       y1="0"
       x2="1"
       y2="0"
       gradientUnits="userSpaceOnUse"
       gradientTransform="matrix(19.001633,362.57272,362.57272,-19.001633,141.91992,16.339844)"
       spreadMethod="pad"
       id="linearGradient26-7"><stop
         style="stop-opacity:1;stop-color:#ffffff"
         offset="0"
         id="stop28-4" /><stop
         style="stop-opacity:1;stop-color:#231f20"
         offset="0.47879"
         id="stop30-4" /><stop
         style="stop-opacity:1;stop-color:#231f20"
         offset="1"
         id="stop32-3" /></linearGradient><clipPath
       clipPathUnits="userSpaceOnUse"
       id="clipPath40-0"><path
         d="M 0,431 816,431 816,0 0,0 0,431 z"
         id="path42-7"
         inkscape:connector-curvature="0" /></clipPath><linearGradient
       inkscape:collect="always"
       xlink:href="#linearGradient64-6"
       id="linearGradient3138-8"
       gradientUnits="userSpaceOnUse"
       gradientTransform="matrix(19.001633,362.57272,362.57272,-19.001633,656.5752,16.339844)"
       spreadMethod="pad"
       x1="0"
       y1="0"
       x2="1"
       y2="0" /><linearGradient
       x1="0"
       y1="0"
       x2="1"
       y2="0"
       gradientUnits="userSpaceOnUse"
       gradientTransform="matrix(19.001633,362.57272,362.57272,-19.001633,656.5752,16.339844)"
       spreadMethod="pad"
       id="linearGradient64-6"><stop
         style="stop-opacity:1;stop-color:#ffffff"
         offset="0"
         id="stop66-8" /><stop
         style="stop-opacity:1;stop-color:#231f20"
         offset="0.47879"
         id="stop68-8" /><stop
         style="stop-opacity:1;stop-color:#231f20"
         offset="1"
         id="stop70-4" /></linearGradient><clipPath
       clipPathUnits="userSpaceOnUse"
       id="clipPath78-3"><path
         d="M 0,431 816,431 816,0 0,0 0,431 z"
         id="path80-1"
         inkscape:connector-curvature="0" /></clipPath><clipPath
       clipPathUnits="userSpaceOnUse"
       id="clipPath90-4"><path
         d="m 298.044,234.758 -23.46,-38.642 82.534,0 c -15.429,-24.752 -33.774,-54.431 -35.154,-57.807 l 0,0 c -6.04,-14.719 -9.047,-28.516 -9.047,-41.396 l 0,0 c 0,-24.943 7.667,-44.568 23.001,-58.879 l 0,0 c 15.331,-14.32 36.236,-21.468 62.713,-21.468 l 0,0 c 35.974,0 68.386,13.544 97.212,40.634 l 0,0 c 29.738,27.999 44.611,60.92 44.611,98.742 l 0,0 c 0,27.09 -10.528,47.535 -31.585,61.337 l 0,0 c -17.882,11.653 -41.145,17.479 -69.76,17.479 l 0,0 -141.065,0 z m 144.103,-4.434 c 0,0 0,0 0,0 m -16.223,-34.208 c 16.559,0 29.533,-4.522 38.946,-13.57 l 0,0 c 9.406,-9.046 14.107,-21.696 14.107,-37.95 l 0,0 c 0,-20.445 -6.9,-41.805 -20.7,-64.088 l 0,0 C 442.731,55.666 425.362,43.246 406.144,43.246 l 0,0 c -11.56,0 -20.394,5.111 -26.527,15.334 l 0,0 c -5.12,8.586 -7.667,19.065 -7.667,31.434 l 0,0 c 0,15.026 3.833,30.714 11.5,47.068 l 0,0 c 1.822,3.846 20.915,34.034 36.838,59.034 l 0,0 5.636,0 z"
         id="path92-9"
         inkscape:connector-curvature="0" /></clipPath><linearGradient
       inkscape:collect="always"
       xlink:href="#linearGradient98-0"
       id="linearGradient3000-2"
       gradientUnits="userSpaceOnUse"
       gradientTransform="matrix(11.539063,220.1783,220.1783,-11.539063,399.24707,16.339844)"
       spreadMethod="pad"
       x1="0"
       y1="0"
       x2="1"
       y2="0" /><linearGradient
       x1="0"
       y1="0"
       x2="1"
       y2="0"
       gradientUnits="userSpaceOnUse"
       gradientTransform="matrix(11.539063,220.1783,220.1783,-11.539063,399.24707,16.339844)"
       spreadMethod="pad"
       id="linearGradient98-0"><stop
         style="stop-opacity:1;stop-color:#ffffff"
         offset="0"
         id="stop100-6" /><stop
         style="stop-opacity:1;stop-color:#231f20"
         offset="0.800003"
         id="stop102-8" /><stop
         style="stop-opacity:1;stop-color:#231f20"
         offset="1"
         id="stop104-9" /></linearGradient><inkscape:perspective
       id="perspective3558"
       inkscape:persp3d-origin="0.5 : 0.33333333 : 1"
       inkscape:vp_z="1 : 0.5 : 1"
       inkscape:vp_y="0 : 1000 : 0"
       inkscape:vp_x="0 : 0.5 : 1"
       sodipodi:type="inkscape:persp3d" /><clipPath
       clipPathUnits="userSpaceOnUse"
       id="clipPath18-3"><path
         d="m 213.811,372.605 c -5.323,-6.417 -50.507,-76.034 -89.799,-137.847 l 0,0 -83.296,0 -23.46,-38.642 82.334,0 C 80.599,165.863 66.416,142.664 64.635,138.309 l 0,0 C 58.595,123.59 55.589,109.793 55.589,96.913 l 0,0 c 0,-24.943 7.667,-44.568 23.001,-58.879 l 0,0 c 15.335,-14.32 36.237,-21.468 62.712,-21.468 l 0,0 c 35.975,0 68.387,13.544 97.213,40.634 l 0,0 c 29.739,27.999 44.613,60.92 44.613,98.742 l 0,0 c 0,27.09 -10.53,47.535 -31.588,61.337 l 0,0 c -16.643,10.847 -37.951,16.644 -63.894,17.395 l 0,0 c 40.487,62.291 87.076,132.133 93.633,137.931 l 0,0 -67.468,0 z M 168.595,196.116 c 16.562,0 29.534,-4.522 38.948,-13.57 l 0,0 c 9.404,-9.046 14.106,-21.696 14.106,-37.95 l 0,0 c 0,-20.445 -6.9,-41.805 -20.7,-64.088 l 0,0 C 185.404,55.666 168.033,43.246 148.816,43.246 l 0,0 c -11.56,0 -20.393,5.111 -26.528,15.334 l 0,0 c -5.119,8.586 -7.666,19.065 -7.666,31.434 l 0,0 c 0,15.026 3.833,30.714 11.5,47.068 l 0,0 c 2.349,4.952 17.079,28.543 36.626,59.034 l 0,0 5.847,0 z"
         id="path20-9"
         inkscape:connector-curvature="0" /></clipPath><linearGradient
       inkscape:collect="always"
       xlink:href="#linearGradient26-1"
       id="linearGradient3064-48"
       gradientUnits="userSpaceOnUse"
       gradientTransform="matrix(19.001633,362.57272,362.57272,-19.001633,141.91992,16.339844)"
       spreadMethod="pad"
       x1="0"
       y1="0"
       x2="1"
       y2="0" /><linearGradient
       x1="0"
       y1="0"
       x2="1"
       y2="0"
       gradientUnits="userSpaceOnUse"
       gradientTransform="matrix(19.001633,362.57272,362.57272,-19.001633,141.91992,16.339844)"
       spreadMethod="pad"
       id="linearGradient26-1"><stop
         style="stop-opacity:1;stop-color:#ffffff"
         offset="0"
         id="stop28-2" /><stop
         style="stop-opacity:1;stop-color:#231f20"
         offset="0.47879"
         id="stop30-9" /><stop
         style="stop-opacity:1;stop-color:#231f20"
         offset="1"
         id="stop32-39" /></linearGradient><clipPath
       clipPathUnits="userSpaceOnUse"
       id="clipPath40-08"><path
         d="M 0,431 816,431 816,0 0,0 0,431 z"
         id="path42-8"
         inkscape:connector-curvature="0" /></clipPath><linearGradient
       inkscape:collect="always"
       xlink:href="#linearGradient64-0"
       id="linearGradient3138-5"
       gradientUnits="userSpaceOnUse"
       gradientTransform="matrix(19.001633,362.57272,362.57272,-19.001633,656.5752,16.339844)"
       spreadMethod="pad"
       x1="0"
       y1="0"
       x2="1"
       y2="0" /><linearGradient
       x1="0"
       y1="0"
       x2="1"
       y2="0"
       gradientUnits="userSpaceOnUse"
       gradientTransform="matrix(19.001633,362.57272,362.57272,-19.001633,656.5752,16.339844)"
       spreadMethod="pad"
       id="linearGradient64-0"><stop
         style="stop-opacity:1;stop-color:#ffffff"
         offset="0"
         id="stop66-9" /><stop
         style="stop-opacity:1;stop-color:#231f20"
         offset="0.47879"
         id="stop68-6" /><stop
         style="stop-opacity:1;stop-color:#231f20"
         offset="1"
         id="stop70-3" /></linearGradient><clipPath
       clipPathUnits="userSpaceOnUse"
       id="clipPath78-8"><path
         d="M 0,431 816,431 816,0 0,0 0,431 z"
         id="path80-5"
         inkscape:connector-curvature="0" /></clipPath><clipPath
       clipPathUnits="userSpaceOnUse"
       id="clipPath90-6"><path
         d="m 298.044,234.758 -23.46,-38.642 82.534,0 c -15.429,-24.752 -33.774,-54.431 -35.154,-57.807 l 0,0 c -6.04,-14.719 -9.047,-28.516 -9.047,-41.396 l 0,0 c 0,-24.943 7.667,-44.568 23.001,-58.879 l 0,0 c 15.331,-14.32 36.236,-21.468 62.713,-21.468 l 0,0 c 35.974,0 68.386,13.544 97.212,40.634 l 0,0 c 29.738,27.999 44.611,60.92 44.611,98.742 l 0,0 c 0,27.09 -10.528,47.535 -31.585,61.337 l 0,0 c -17.882,11.653 -41.145,17.479 -69.76,17.479 l 0,0 -141.065,0 z m 144.103,-4.434 c 0,0 0,0 0,0 m -16.223,-34.208 c 16.559,0 29.533,-4.522 38.946,-13.57 l 0,0 c 9.406,-9.046 14.107,-21.696 14.107,-37.95 l 0,0 c 0,-20.445 -6.9,-41.805 -20.7,-64.088 l 0,0 C 442.731,55.666 425.362,43.246 406.144,43.246 l 0,0 c -11.56,0 -20.394,5.111 -26.527,15.334 l 0,0 c -5.12,8.586 -7.667,19.065 -7.667,31.434 l 0,0 c 0,15.026 3.833,30.714 11.5,47.068 l 0,0 c 1.822,3.846 20.915,34.034 36.838,59.034 l 0,0 5.636,0 z"
         id="path92-1"
         inkscape:connector-curvature="0" /></clipPath><linearGradient
       inkscape:collect="always"
       xlink:href="#linearGradient98-5"
       id="linearGradient3000-1"
       gradientUnits="userSpaceOnUse"
       gradientTransform="matrix(11.539063,220.1783,220.1783,-11.539063,399.24707,16.339844)"
       spreadMethod="pad"
       x1="0"
       y1="0"
       x2="1"
       y2="0" /><linearGradient
       x1="0"
       y1="0"
       x2="1"
       y2="0"
       gradientUnits="userSpaceOnUse"
       gradientTransform="matrix(11.539063,220.1783,220.1783,-11.539063,399.24707,16.339844)"
       spreadMethod="pad"
       id="linearGradient98-5"><stop
         style="stop-opacity:1;stop-color:#ffffff"
         offset="0"
         id="stop100-9" /><stop
         style="stop-opacity:1;stop-color:#231f20"
         offset="0.800003"
         id="stop102-84" /><stop
         style="stop-opacity:1;stop-color:#231f20"
         offset="1"
         id="stop104-8" /></linearGradient><linearGradient
       inkscape:collect="always"
       xlink:href="#linearGradient98-0"
       id="linearGradient3801"
       gradientUnits="userSpaceOnUse"
       gradientTransform="matrix(11.539063,220.1783,220.1783,-11.539063,399.24707,16.339844)"
       spreadMethod="pad"
       x1="0"
       y1="0"
       x2="1"
       y2="0" /><linearGradient
       inkscape:collect="always"
       xlink:href="#linearGradient64-6"
       id="linearGradient3814"
       gradientUnits="userSpaceOnUse"
       gradientTransform="matrix(19.001633,362.57272,362.57272,-19.001633,656.5752,16.339844)"
       spreadMethod="pad"
       x1="0"
       y1="0"
       x2="1"
       y2="0" /><linearGradient
       inkscape:collect="always"
       xlink:href="#linearGradient26-7"
       id="linearGradient3826"
       gradientUnits="userSpaceOnUse"
       gradientTransform="matrix(19.001633,362.57272,362.57272,-19.001633,141.91992,16.339844)"
       spreadMethod="pad"
       x1="0"
       y1="0"
       x2="1"
       y2="0" /><linearGradient
       inkscape:collect="always"
       xlink:href="#linearGradient26-7"
       id="linearGradient3851"
       gradientUnits="userSpaceOnUse"
       gradientTransform="matrix(19.001633,362.57272,362.57272,-19.001633,141.91992,16.339844)"
       spreadMethod="pad"
       x1="0"
       y1="0"
       x2="1"
       y2="0" /><linearGradient
       inkscape:collect="always"
       xlink:href="#linearGradient64-6"
       id="linearGradient3862"
       gradientUnits="userSpaceOnUse"
       gradientTransform="matrix(19.001633,362.57272,362.57272,-19.001633,656.5752,16.339844)"
       spreadMethod="pad"
       x1="0"
       y1="0"
       x2="1"
       y2="0" /><linearGradient
       inkscape:collect="always"
       xlink:href="#linearGradient64-6"
       id="linearGradient3865"
       gradientUnits="userSpaceOnUse"
       gradientTransform="matrix(19.001633,362.57272,362.57272,-19.001633,642.26738,-423.36083)"
       spreadMethod="pad"
       x1="0"
       y1="0"
       x2="1"
       y2="0" /><linearGradient
       inkscape:collect="always"
       xlink:href="#linearGradient98-0"
       id="linearGradient3870"
       gradientUnits="userSpaceOnUse"
       gradientTransform="matrix(11.539063,220.1783,220.1783,-11.539063,399.24707,16.339844)"
       spreadMethod="pad"
       x1="0"
       y1="0"
       x2="1"
       y2="0" /><linearGradient
       inkscape:collect="always"
       xlink:href="#linearGradient98-0"
       id="linearGradient3876"
       gradientUnits="userSpaceOnUse"
       gradientTransform="matrix(11.539063,220.1783,220.1783,-11.539063,399.24707,16.339844)"
       spreadMethod="pad"
       x1="0"
       y1="0"
       x2="1"
       y2="0" /><linearGradient
       inkscape:collect="always"
       xlink:href="#linearGradient26-7"
       id="linearGradient3883"
       gradientUnits="userSpaceOnUse"
       gradientTransform="matrix(19.001633,362.57272,362.57272,-19.001633,141.91992,16.339844)"
       spreadMethod="pad"
       x1="0"
       y1="0"
       x2="1"
       y2="0" /><linearGradient
       inkscape:collect="always"
       xlink:href="#linearGradient26-7"
       id="linearGradient3890"
       gradientUnits="userSpaceOnUse"
       gradientTransform="matrix(19.001633,362.57272,362.57272,-19.001633,141.91992,16.339844)"
       spreadMethod="pad"
       x1="0"
       y1="0"
       x2="1"
       y2="0" /><linearGradient
       inkscape:collect="always"
       xlink:href="#linearGradient98-0"
       id="linearGradient3895"
       gradientUnits="userSpaceOnUse"
       gradientTransform="matrix(11.539063,220.1783,220.1783,-11.539063,399.24707,16.339844)"
       spreadMethod="pad"
       x1="0"
       y1="0"
       x2="1"
       y2="0" /><linearGradient
       inkscape:collect="always"
       xlink:href="#linearGradient26-7"
       id="linearGradient3904"
       gradientUnits="userSpaceOnUse"
       gradientTransform="matrix(19.001633,362.57272,362.57272,-19.001633,141.91992,16.339844)"
       spreadMethod="pad"
       x1="0"
       y1="0"
       x2="1"
       y2="0" /><linearGradient
       inkscape:collect="always"
       xlink:href="#linearGradient26"
       id="linearGradient3906"
       gradientUnits="userSpaceOnUse"
       gradientTransform="matrix(19.001633,362.57272,362.57272,-19.001633,141.91992,16.339844)"
       spreadMethod="pad"
       x1="0"
       y1="0"
       x2="1"
       y2="0" /><linearGradient
       inkscape:collect="always"
       xlink:href="#linearGradient64"
       id="linearGradient3908"
       gradientUnits="userSpaceOnUse"
       gradientTransform="matrix(19.001633,362.57272,362.57272,-19.001633,656.5752,16.339844)"
       spreadMethod="pad"
       x1="0"
       y1="0"
       x2="1"
       y2="0" /><linearGradient
       inkscape:collect="always"
       xlink:href="#linearGradient98"
       id="linearGradient3910"
       gradientUnits="userSpaceOnUse"
       gradientTransform="matrix(11.539063,220.1783,220.1783,-11.539063,399.24707,16.339844)"
       spreadMethod="pad"
       x1="0"
       y1="0"
       x2="1"
       y2="0" /><linearGradient
       inkscape:collect="always"
       xlink:href="#linearGradient98"
       id="linearGradient3952"
       gradientUnits="userSpaceOnUse"
       gradientTransform="matrix(11.539063,220.1783,220.1783,-11.539063,399.24707,16.339844)"
       spreadMethod="pad"
       x1="0"
       y1="0"
       x2="1"
       y2="0" /><linearGradient
       inkscape:collect="always"
       xlink:href="#linearGradient64"
       id="linearGradient3965"
       gradientUnits="userSpaceOnUse"
       gradientTransform="matrix(19.001633,362.57272,362.57272,-19.001633,656.5752,16.339844)"
       spreadMethod="pad"
       x1="0"
       y1="0"
       x2="1"
       y2="0" /><linearGradient
       inkscape:collect="always"
       xlink:href="#linearGradient26"
       id="linearGradient3977"
       gradientUnits="userSpaceOnUse"
       gradientTransform="matrix(19.001633,362.57272,362.57272,-19.001633,141.91992,16.339844)"
       spreadMethod="pad"
       x1="0"
       y1="0"
       x2="1"
       y2="0" /><linearGradient
       inkscape:collect="always"
       xlink:href="#linearGradient64"
       id="linearGradient3995"
       gradientUnits="userSpaceOnUse"
       gradientTransform="matrix(19.001633,362.57272,362.57272,-19.001633,656.5752,16.339844)"
       spreadMethod="pad"
       x1="0"
       y1="0"
       x2="1"
       y2="0" /><linearGradient
       inkscape:collect="always"
       xlink:href="#linearGradient64"
       id="linearGradient3998"
       gradientUnits="userSpaceOnUse"
       gradientTransform="matrix(19.001633,362.57272,362.57272,-19.001633,586.34173,16.339844)"
       spreadMethod="pad"
       x1="0"
       y1="0"
       x2="1"
       y2="0" /><linearGradient
       inkscape:collect="always"
       xlink:href="#linearGradient98"
       id="linearGradient4000"
       gradientUnits="userSpaceOnUse"
       gradientTransform="matrix(11.539063,220.1783,220.1783,-11.539063,399.24707,16.339844)"
       spreadMethod="pad"
       x1="0"
       y1="0"
       x2="1"
       y2="0" /><linearGradient
       inkscape:collect="always"
       xlink:href="#linearGradient26"
       id="linearGradient4006"
       gradientUnits="userSpaceOnUse"
       gradientTransform="matrix(19.001633,362.57272,362.57272,-19.001633,141.91992,16.339844)"
       spreadMethod="pad"
       x1="0"
       y1="0"
       x2="1"
       y2="0" /><linearGradient
       inkscape:collect="always"
       xlink:href="#linearGradient26"
       id="linearGradient4048"
       gradientUnits="userSpaceOnUse"
       gradientTransform="matrix(19.001633,362.57272,362.57272,-19.001633,141.91992,16.339844)"
       spreadMethod="pad"
       x1="0"
       y1="0"
       x2="1"
       y2="0" /><linearGradient
       inkscape:collect="always"
       xlink:href="#linearGradient64"
       id="linearGradient4050"
       gradientUnits="userSpaceOnUse"
       gradientTransform="matrix(19.001633,362.57272,362.57272,-19.001633,586.34173,16.339844)"
       spreadMethod="pad"
       x1="0"
       y1="0"
       x2="1"
       y2="0" /><linearGradient
       inkscape:collect="always"
       xlink:href="#linearGradient98"
       id="linearGradient4052"
       gradientUnits="userSpaceOnUse"
       gradientTransform="matrix(11.539063,220.1783,220.1783,-11.539063,399.24707,16.339844)"
       spreadMethod="pad"
       x1="0"
       y1="0"
       x2="1"
       y2="0" /><linearGradient
       inkscape:collect="always"
       xlink:href="#linearGradient26"
       id="linearGradient4065"
       gradientUnits="userSpaceOnUse"
       gradientTransform="matrix(19.001633,362.57272,362.57272,-19.001633,141.91992,16.339844)"
       spreadMethod="pad"
       x1="0"
       y1="0"
       x2="1"
       y2="0" /><linearGradient
       inkscape:collect="always"
       xlink:href="#linearGradient64"
       id="linearGradient4067"
       gradientUnits="userSpaceOnUse"
       gradientTransform="matrix(19.001633,362.57272,362.57272,-19.001633,586.34173,16.339844)"
       spreadMethod="pad"
       x1="0"
       y1="0"
       x2="1"
       y2="0" /><linearGradient
       inkscape:collect="always"
       xlink:href="#linearGradient98"
       id="linearGradient4069"
       gradientUnits="userSpaceOnUse"
       gradientTransform="matrix(11.539063,220.1783,220.1783,-11.539063,399.24707,16.339844)"
       spreadMethod="pad"
       x1="0"
       y1="0"
       x2="1"
       y2="0" /><linearGradient
       inkscape:collect="always"
       xlink:href="#linearGradient26"
       id="linearGradient4081"
       gradientUnits="userSpaceOnUse"
       gradientTransform="matrix(19.001633,362.57272,362.57272,-19.001633,141.91992,16.339844)"
       spreadMethod="pad"
       x1="0"
       y1="0"
       x2="1"
       y2="0" /><linearGradient
       inkscape:collect="always"
       xlink:href="#linearGradient64"
       id="linearGradient4083"
       gradientUnits="userSpaceOnUse"
       gradientTransform="matrix(19.001633,362.57272,362.57272,-19.001633,586.34173,16.339844)"
       spreadMethod="pad"
       x1="0"
       y1="0"
       x2="1"
       y2="0" /><linearGradient
       inkscape:collect="always"
       xlink:href="#linearGradient98"
       id="linearGradient4085"
       gradientUnits="userSpaceOnUse"
       gradientTransform="matrix(11.539063,220.1783,220.1783,-11.539063,399.24707,16.339844)"
       spreadMethod="pad"
       x1="0"
       y1="0"
       x2="1"
       y2="0" /><linearGradient
       inkscape:collect="always"
       xlink:href="#linearGradient64"
       id="linearGradient4092"
       gradientUnits="userSpaceOnUse"
       gradientTransform="matrix(19.001633,362.57272,362.57272,-19.001633,586.34173,16.339844)"
       spreadMethod="pad"
       x1="0"
       y1="0"
       x2="1"
       y2="0" /><inkscape:perspective
       id="perspective4933"
       inkscape:persp3d-origin="0.5 : 0.33333333 : 1"
       inkscape:vp_z="1 : 0.5 : 1"
       inkscape:vp_y="0 : 1000 : 0"
       inkscape:vp_x="0 : 0.5 : 1"
       sodipodi:type="inkscape:persp3d" /><clipPath
       clipPathUnits="userSpaceOnUse"
       id="clipPath78-7"><path
         d="M 0,431 816,431 816,0 0,0 0,431 z"
         id="path80-7"
         inkscape:connector-curvature="0" /></clipPath><inkscape:perspective
       id="perspective4995"
       inkscape:persp3d-origin="0.5 : 0.33333333 : 1"
       inkscape:vp_z="1 : 0.5 : 1"
       inkscape:vp_y="0 : 1000 : 0"
       inkscape:vp_x="0 : 0.5 : 1"
       sodipodi:type="inkscape:persp3d" /><inkscape:perspective
       id="perspective5021"
       inkscape:persp3d-origin="0.5 : 0.33333333 : 1"
       inkscape:vp_z="1 : 0.5 : 1"
       inkscape:vp_y="0 : 1000 : 0"
       inkscape:vp_x="0 : 0.5 : 1"
       sodipodi:type="inkscape:persp3d" /><inkscape:perspective
       id="perspective5070"
       inkscape:persp3d-origin="0.5 : 0.33333333 : 1"
       inkscape:vp_z="1 : 0.5 : 1"
       inkscape:vp_y="0 : 1000 : 0"
       inkscape:vp_x="0 : 0.5 : 1"
       sodipodi:type="inkscape:persp3d" /><inkscape:perspective
       id="perspective5094"
       inkscape:persp3d-origin="0.5 : 0.33333333 : 1"
       inkscape:vp_z="1 : 0.5 : 1"
       inkscape:vp_y="0 : 1000 : 0"
       inkscape:vp_x="0 : 0.5 : 1"
       sodipodi:type="inkscape:persp3d" /><inkscape:perspective
       id="perspective5140"
       inkscape:persp3d-origin="0.5 : 0.33333333 : 1"
       inkscape:vp_z="1 : 0.5 : 1"
       inkscape:vp_y="0 : 1000 : 0"
       inkscape:vp_x="0 : 0.5 : 1"
       sodipodi:type="inkscape:persp3d" /><inkscape:perspective
       id="perspective5232"
       inkscape:persp3d-origin="0.5 : 0.33333333 : 1"
       inkscape:vp_z="1 : 0.5 : 1"
       inkscape:vp_y="0 : 1000 : 0"
       inkscape:vp_x="0 : 0.5 : 1"
       sodipodi:type="inkscape:persp3d" /><linearGradient
       inkscape:collect="always"
       xlink:href="#linearGradient3967-3"
       id="linearGradient4133-4"
       gradientUnits="userSpaceOnUse"
       x1="470.99741"
       y1="206.53362"
       x2="465.95999"
       y2="30.22443" /><linearGradient
       inkscape:collect="always"
       id="linearGradient3967-3"><stop
         style="stop-color:#000000;stop-opacity:1;"
         offset="0"
         id="stop3969-1" /><stop
         style="stop-color:#000000;stop-opacity:0;"
         offset="1"
         id="stop3971-4" /></linearGradient><linearGradient
       inkscape:collect="always"
       xlink:href="#linearGradient3967-3-0"
       id="linearGradient3979-8"
       gradientUnits="userSpaceOnUse"
       gradientTransform="translate(968.40547,-433.89593)"
       x1="470.99741"
       y1="206.53362"
       x2="465.95999"
       y2="30.22443" /><linearGradient
       inkscape:collect="always"
       id="linearGradient3967-3-0"><stop
         style="stop-color:#000000;stop-opacity:1;"
         offset="0"
         id="stop3969-1-3" /><stop
         style="stop-color:#000000;stop-opacity:0;"
         offset="1"
         id="stop3971-4-7" /></linearGradient><linearGradient
       inkscape:collect="always"
       xlink:href="#linearGradient3928"
       id="linearGradient3934"
       x1="533.31055"
       y1="260.1922"
       x2="531.41937"
       y2="481.45932"
       gradientUnits="userSpaceOnUse"
       gradientTransform="matrix(0.8,0,0,-0.8,6.41175,447.98116)" /><linearGradient
       inkscape:collect="always"
       xlink:href="#linearGradient3928-1"
       id="linearGradient3934-5"
       x1="533.31055"
       y1="260.1922"
       x2="531.41937"
       y2="481.45932"
       gradientUnits="userSpaceOnUse"
       gradientTransform="matrix(0.8,0,0,-0.8,6.41175,447.98116)" /><linearGradient
       inkscape:collect="always"
       id="linearGradient3928-1"><stop
         style="stop-color:#000000;stop-opacity:1;"
         offset="0"
         id="stop3930-1" /><stop
         style="stop-color:#000000;stop-opacity:0;"
         offset="1"
         id="stop3932-0" /></linearGradient><linearGradient
       inkscape:collect="always"
       xlink:href="#linearGradient3928"
       id="linearGradient3183"
       gradientUnits="userSpaceOnUse"
       gradientTransform="matrix(0.8,0,0,-0.8,6.41175,447.98116)"
       x1="533.31055"
       y1="260.1922"
       x2="531.41937"
       y2="481.45932" /><linearGradient
       inkscape:collect="always"
       xlink:href="#linearGradient3928-1"
       id="linearGradient3973"
       gradientUnits="userSpaceOnUse"
       gradientTransform="matrix(1,0,0,-1,3.7983907,932.92396)"
       x1="533.31055"
       y1="260.1922"
       x2="531.41937"
       y2="481.45932" /><linearGradient
       inkscape:collect="always"
       xlink:href="#linearGradient3986"
       id="linearGradient3992"
       x1="541.74945"
       y1="491.98343"
       x2="541.74939"
       y2="426.59988"
       gradientUnits="userSpaceOnUse"
       gradientTransform="matrix(0.8,0,0,0.8,5.125,-377.59873)" /><linearGradient
       inkscape:collect="always"
       id="linearGradient3928-14"><stop
         style="stop-color:#000000;stop-opacity:1;"
         offset="0"
         id="stop3930-3" /><stop
         style="stop-color:#000000;stop-opacity:0"
         offset="1"
         id="stop3932-4" /></linearGradient><linearGradient
       inkscape:collect="always"
       xlink:href="#linearGradient4060"
       id="linearGradient4066"
       x1="6.7617502"
       y1="208.75616"
       x2="798.83673"
       y2="208.75616"
       gradientUnits="userSpaceOnUse" /><linearGradient
       inkscape:collect="always"
       xlink:href="#linearGradient3928-14"
       id="linearGradient4068"
       x1="423.64352"
       y1="52.000435"
       x2="424.711"
       y2="151.27667"
       gradientUnits="userSpaceOnUse" /><linearGradient
       inkscape:collect="always"
       xlink:href="#linearGradient3928-14"
       id="linearGradient4070"
       gradientUnits="userSpaceOnUse"
       x1="423.64352"
       y1="52.000435"
       x2="424.711"
       y2="151.27667" /><linearGradient
       inkscape:collect="always"
       xlink:href="#linearGradient4060"
       id="linearGradient4072"
       gradientUnits="userSpaceOnUse"
       x1="6.7617502"
       y1="208.75616"
       x2="798.83673"
       y2="208.75616" /><linearGradient
       inkscape:collect="always"
       xlink:href="#linearGradient3928-14"
       id="linearGradient4074"
       gradientUnits="userSpaceOnUse"
       x1="423.64352"
       y1="52.000435"
       x2="424.711"
       y2="151.27667" /><linearGradient
       inkscape:collect="always"
       xlink:href="#linearGradient4060"
       id="linearGradient4076"
       gradientUnits="userSpaceOnUse"
       x1="6.7617502"
       y1="208.75616"
       x2="798.83673"
       y2="208.75616" /><linearGradient
       inkscape:collect="always"
       xlink:href="#linearGradient3928-14"
       id="linearGradient4079"
       gradientUnits="userSpaceOnUse"
       x1="423.64352"
       y1="52.000435"
       x2="424.711"
       y2="151.27667"
       gradientTransform="matrix(1,0,0,-1,2.071168,78.71187)" /><linearGradient
       inkscape:collect="always"
       xlink:href="#linearGradient4060"
       id="linearGradient4082"
       gradientUnits="userSpaceOnUse"
       x1="6.7617502"
       y1="208.75616"
       x2="798.83673"
       y2="208.75616"
       gradientTransform="matrix(1,0,0,-1,2.071168,78.71187)" /><linearGradient
       inkscape:collect="always"
       xlink:href="#linearGradient3928-14"
       id="linearGradient4086"
       gradientUnits="userSpaceOnUse"
       x1="423.64352"
       y1="52.000435"
       x2="424.711"
       y2="151.27667"
       gradientTransform="matrix(1,0,0,-1,2.071168,78.71187)" /><linearGradient
       inkscape:collect="always"
       xlink:href="#linearGradient4060"
       id="linearGradient4088"
       gradientUnits="userSpaceOnUse"
       x1="6.7617502"
       y1="208.75616"
       x2="798.83673"
       y2="208.75616"
       gradientTransform="matrix(1,0,0,-1,2.071168,78.71187)" /><linearGradient
       inkscape:collect="always"
       xlink:href="#linearGradient3928-14"
       id="linearGradient4090"
       gradientUnits="userSpaceOnUse"
       gradientTransform="matrix(1.25,0,0,1.25,-3.81729,372.27422)"
       x1="424.711"
       y1="-146.19418"
       x2="424.711"
       y2="120.31956" /><linearGradient
       inkscape:collect="always"
       xlink:href="#linearGradient3928-14"
       id="linearGradient4095"
       gradientUnits="userSpaceOnUse"
       gradientTransform="matrix(1.25,0,0,1.25,-3.81729,372.27422)"
       x1="424.711"
       y1="-146.19418"
       x2="424.711"
       y2="120.31956" /><linearGradient
       inkscape:collect="always"
       xlink:href="#linearGradient3928"
       id="linearGradient4103"
       gradientUnits="userSpaceOnUse"
       gradientTransform="matrix(0.8,0,0,-0.8,6.41175,447.98116)"
       x1="533.31055"
       y1="260.1922"
       x2="531.41937"
       y2="481.45932" /><linearGradient
       inkscape:collect="always"
       xlink:href="#linearGradient3928-14"
       id="linearGradient4105"
       gradientUnits="userSpaceOnUse"
       gradientTransform="matrix(1.25,0,0,1.25,-3.81729,372.27422)"
       x1="424.711"
       y1="-146.19418"
       x2="424.711"
       y2="120.31956" /><linearGradient
       inkscape:collect="always"
       xlink:href="#linearGradient3928-14"
       id="linearGradient4108"
       gradientUnits="userSpaceOnUse"
       gradientTransform="matrix(1,0,0,-1,2.071168,78.711874)"
       x1="424.711"
       y1="-146.19418"
       x2="424.711"
       y2="120.31956" /><linearGradient
       inkscape:collect="always"
       xlink:href="#linearGradient3928"
       id="linearGradient4113"
       gradientUnits="userSpaceOnUse"
       gradientTransform="matrix(0.8,0,0,-0.8,6.41175,447.98116)"
       x1="533.31055"
       y1="260.1922"
       x2="531.41937"
       y2="481.45932" /><radialGradient
       inkscape:collect="always"
       xlink:href="#linearGradient3207"
       id="radialGradient4007"
       cx="440.34738"
       cy="-100.70522"
       fx="440.34741"
       fy="-100.70523"
       r="394.83749"
       gradientTransform="matrix(2.4244461,0.00572215,-0.0019659,0.83294786,-1079.8457,112.69826)"
       gradientUnits="userSpaceOnUse" /><radialGradient
       inkscape:collect="always"
       xlink:href="#linearGradient3207"
       id="radialGradient4125"
       cx="448.18771"
       cy="-189.20233"
       fx="448.18771"
       fy="-189.20233"
       r="394.03751"
       gradientTransform="matrix(2.4293683,0.00573345,-0.00196979,0.83463892,-1101.235,186.68176)"
       gradientUnits="userSpaceOnUse" /></defs><sodipodi:namedview
     pagecolor="#ffffff"
     bordercolor="#666666"
     borderopacity="1"
     objecttolerance="10"
     gridtolerance="10"
     guidetolerance="10"
     inkscape:pageopacity="0"
     inkscape:pageshadow="2"
     inkscape:window-width="1225"
     inkscape:window-height="829"
     id="namedview4"
     showgrid="false"
     inkscape:zoom="0.55469535"
     inkscape:cx="-125.2335"
     inkscape:cy="209.99701"
     inkscape:window-x="257"
     inkscape:window-y="78"
     inkscape:window-maximized="0"
     inkscape:current-layer="g12"
     fit-margin-top="0"
     fit-margin-left="0"
     fit-margin-right="0"
     fit-margin-bottom="0" /><g
     id="g12"
     inkscape:groupmode="layer"
     inkscape:label="logo-bob-final"
     transform="matrix(1.25,0,0,-1.25,-7.1956497,468.80756)"><path
       style="fill:url(#radialGradient4007);fill-opacity:1;fill-rule:nonzero;stroke:url(#radialGradient4125);stroke-width:1.60000002;stroke-miterlimit:4;stroke-opacity:1;stroke-dasharray:none"
       d="m 264.99448,370.94604 -75.05,-50.875 24.5,0 c -12.62434,-19.57544 -26.15975,-40.71393 -39.15,-61.15 -48.82961,0 -91.659486,10e-6 -140.000921,10e-6 l -24.575,-38.625 c 48.327485,0 91.443691,0 140.150921,0 -18.9831,-30.2416 -33.1951,-53.471 -34.975,-57.825 -6.039,-14.72 -9.025,-28.495 -9.025,-41.375 0,-24.943005 7.667,-44.589985 23,-58.899995 15.3359,-14.321 36.225,-21.45 62.7,-21.45 35.974,0 68.4,13.53497 97.225,40.625 29.739,27.998995 44.6,60.927995 44.6,98.749995 0,27.08993 -10.517,47.523 -31.575,61.325 -16.6389,10.84508 -37.9642,16.64745 -63.9,17.4 13.32194,20.49629 27.22773,41.64702 40.225,61.225 l 23.89057,0 z m -50.975,-150.65 5.85,0 c 16.562,0 29.536,-4.528 38.95,-13.575 9.404,-9.046 14.1,-21.696 14.1,-37.95 0,-20.444 -6.901,-41.816 -20.7,-64.1 -15.547,-24.841005 -32.908,-37.249996 -52.125,-37.249996 -11.56,0 -20.391,5.102 -26.525,15.325001 -5.119,8.585999 -7.675,19.080995 -7.675,31.449995 0,15.027 3.834,30.695 11.5,47.05 2.348,4.94988 17.0885,28.5742 36.625,59.05 z"
       id="path84-9-95-9-1-31"
       inkscape:connector-curvature="0"
       sodipodi:nodetypes="ccccccccscscsccccccscscscscc" /></g></svg>